<svg id="visual" viewBox="0 0 900 600" width="900" height="600" xmlns="http://www.w3.org/2000/svg" xmlns:xlink="http://www.w3.org/1999/xlink" version="1.1"><path d="M0 133L13.7 147C27.3 161 54.7 189 82 186C109.3 183 136.7 149 163.8 155C191 161 218 207 245.2 216C272.3 225 299.7 197 327 198C354.3 199 381.7 229 409 226C436.3 223 463.7 187 491 157C518.3 127 545.7 103 573 101C600.3 99 627.7 119 654.8 139C682 159 709 179 736.2 191C763.3 203 790.7 207 818 211C845.3 215 872.7 219 886.3 221L900 223L900 0L886.3 0C872.7 0 845.3 0 818 0C790.7 0 763.3 0 736.2 0C709 0 682 0 654.8 0C627.7 0 600.3 0 573 0C545.7 0 518.3 0 491 0C463.7 0 436.3 0 409 0C381.7 0 354.3 0 327 0C299.7 0 272.3 0 245.2 0C218 0 191 0 163.8 0C136.7 0 109.3 0 82 0C54.7 0 27.3 0 13.7 0L0 0Z" fill="#033060"></path><path d="M0 271L13.7 279C27.3 287 54.7 303 82 300C109.3 297 136.7 275 163.8 279C191 283 218 313 245.2 325C272.3 337 299.7 331 327 330C354.3 329 381.7 333 409 319C436.3 305 463.7 273 491 251C518.3 229 545.7 217 573 227C600.3 237 627.7 269 654.8 283C682 297 709 293 736.2 303C763.3 313 790.7 337 818 335C845.3 333 872.7 305 886.3 291L900 277L900 221L886.3 219C872.7 217 845.3 213 818 209C790.7 205 763.3 201 736.2 189C709 177 682 157 654.8 137C627.7 117 600.3 97 573 99C545.7 101 518.3 125 491 155C463.7 185 436.3 221 409 224C381.7 227 354.3 197 327 196C299.7 195 272.3 223 245.2 214C218 205 191 159 163.8 153C136.7 147 109.3 181 82 184C54.7 187 27.3 159 13.7 145L0 131Z" fill="#042141"></path><path d="M0 343L13.7 352C27.3 361 54.7 379 82 370C109.3 361 136.7 325 163.8 331C191 337 218 385 245.2 398C272.3 411 299.7 389 327 389C354.3 389 381.7 411 409 407C436.3 403 463.7 373 491 351C518.3 329 545.7 315 573 314C600.3 313 627.7 325 654.8 331C682 337 709 337 736.2 347C763.3 357 790.7 377 818 380C845.3 383 872.7 369 886.3 362L900 355L900 275L886.3 289C872.7 303 845.3 331 818 333C790.7 335 763.3 311 736.2 301C709 291 682 295 654.8 281C627.7 267 600.3 235 573 225C545.7 215 518.3 227 491 249C463.7 271 436.3 303 409 317C381.7 331 354.3 327 327 328C299.7 329 272.3 335 245.2 323C218 311 191 281 163.8 277C136.7 273 109.3 295 82 298C54.7 301 27.3 285 13.7 277L0 269Z" fill="#041125"></path><path d="M0 463L13.7 460C27.3 457 54.7 451 82 434C109.3 417 136.7 389 163.8 397C191 405 218 449 245.2 466C272.3 483 299.7 473 327 475C354.3 477 381.7 491 409 485C436.3 479 463.7 453 491 437C518.3 421 545.7 415 573 410C600.3 405 627.7 401 654.8 401C682 401 709 405 736.2 425C763.3 445 790.7 481 818 487C845.3 493 872.7 469 886.3 457L900 445L900 353L886.3 360C872.7 367 845.3 381 818 378C790.7 375 763.3 355 736.2 345C709 335 682 335 654.8 329C627.7 323 600.3 311 573 312C545.7 313 518.3 327 491 349C463.7 371 436.3 401 409 405C381.7 409 354.3 387 327 387C299.7 387 272.3 409 245.2 396C218 383 191 335 163.8 329C136.7 323 109.3 359 82 368C54.7 377 27.3 359 13.7 350L0 341Z" fill="#041021"></path><path d="M0 601L13.7 601C27.3 601 54.7 601 82 601C109.3 601 136.7 601 163.8 601C191 601 218 601 245.2 601C272.3 601 299.7 601 327 601C354.3 601 381.7 601 409 601C436.3 601 463.7 601 491 601C518.3 601 545.7 601 573 601C600.3 601 627.7 601 654.8 601C682 601 709 601 736.2 601C763.3 601 790.7 601 818 601C845.3 601 872.7 601 886.3 601L900 601L900 443L886.3 455C872.7 467 845.3 491 818 485C790.7 479 763.3 443 736.2 423C709 403 682 399 654.8 399C627.7 399 600.3 403 573 408C545.7 413 518.3 419 491 435C463.7 451 436.3 477 409 483C381.7 489 354.3 475 327 473C299.7 471 272.3 481 245.2 464C218 447 191 403 163.8 395C136.7 387 109.3 415 82 432C54.7 449 27.3 455 13.7 458L0 461Z" fill="#030e1d"></path></svg>